<svg width="470" height="430" viewBox="0 0 470 430" fill="none" xmlns="http://www.w3.org/2000/svg">
<path fill-rule="evenodd" clip-rule="evenodd" d="M119.232 10.086C119.021 4.029 119.301 1.441 120.232 0.850998C120.943 0.399998 129.737 0.0239994 139.775 0.0149994L158.025 0V9.522V19.043L138.775 18.772L119.525 18.5L119.232 10.086ZM312.025 78V69V60H327.025H342.025V69V78H327.025H312.025ZM322.183 384.539C328.563 359.59 330.07 356.535 336.411 355.693C339.209 355.321 358.166 355.973 358.773 356.462C359.085 356.714 364.777 383.03 369.489 406C371.463 415.625 373.292 424.48 373.553 425.678C373.98 427.642 373.509 427.921 368.746 428.516C365.842 428.878 362.129 429.023 360.495 428.838C357.633 428.512 357.467 428.208 355.947 420.5L354.368 412.5H342.545H330.722L328.991 419.869C328.039 423.921 326.644 427.627 325.892 428.103C325.14 428.58 321.713 428.976 318.275 428.985C312.725 428.998 312.025 428.78 312.025 427.037C312.025 424.788 313.94 416.777 322.183 384.539ZM0.524994 428.5L0.261993 392.211L0 355.922L8.76199 356.211C16.722 356.473 17.534 356.683 17.627 358.5C17.683 359.6 17.796 372.538 17.877 387.25L18.025 414H22.374C24.766 414 30.166 414.291 34.374 414.647L42.025 415.293V422.167V429.041L21.275 428.77L0.524994 428.5ZM81.927 362.756C82.464 361.346 83.915 359.249 85.152 358.096C87.184 356.203 88.596 356 99.735 356C106.197 356 109.47 355.615 111.481 357.027C114.03 358.817 114.553 363.494 116.977 375.5C118.644 383.75 121.757 398.916 123.896 409.203C126.036 419.49 127.54 428.152 127.239 428.453C126.39 429.302 113.679 429.067 112.277 428.177C111.59 427.741 110.552 424.71 109.971 421.442C109.122 416.671 108.937 414.294 107.653 413.117C106.166 411.754 103.204 412 96.029 412H84.167L83.033 417.75C81.541 425.313 80.509 428.556 79.692 428.25C79.325 428.112 76.1 428 72.525 428C67.265 428 66.025 427.698 66.025 426.418C66.025 424.513 80.54 366.406 81.927 362.756ZM157.829 392.306C158.233 357.283 158.245 357.109 160.38 356.652C161.56 356.4 170.175 356.262 179.525 356.346C193.929 356.477 197.101 356.786 200.295 358.373C206.681 361.547 208.474 365.134 208.858 375.5C209.168 383.902 209.012 384.763 206.5 388.453C203.884 392.296 203.862 392.45 205.698 393.953C209.922 397.412 211.025 400.25 211.025 407.657C211.025 416.164 209.983 419.379 205.834 423.681C201.143 428.545 195.744 429.417 175.142 428.64C165.534 428.277 157.616 427.873 157.548 427.74C157.479 427.608 157.606 411.663 157.829 392.306ZM243.953 370.431C245.38 362.713 249.096 358.722 256.525 356.929C258.175 356.531 265.732 356.159 273.319 356.102L287.113 356L286.819 363.25L286.525 370.5L273.775 370.78L261.025 371.06V392.53V414H274.025H287.025V421.5V429H273.207C254.662 429 250.097 427.68 246.299 421.218C243.552 416.546 243.522 416.305 243.203 396.367C243.017 384.785 243.336 373.77 243.953 370.431ZM403.525 428.5L403.263 392.25L403 356H409.513C414.553 356 416.45 356.425 417.905 357.88C418.939 358.914 423.259 366.362 427.505 374.43C431.751 382.499 435.68 388.948 436.236 388.763C436.792 388.578 441.087 381.13 445.779 372.213L454.311 356H459.033C462.296 356 464.569 356.64 466.39 358.073L469.025 360.145V393.942V427.738L465.275 428.358C463.213 428.699 459.899 428.983 457.911 428.989C454.363 429 454.285 428.915 453.655 424.319C453.302 421.745 453.307 413.501 453.665 406.001C454.315 392.376 453.643 383.953 452.038 385.62C451.571 386.104 448.639 391.337 445.521 397.25L439.852 408L435.688 407.985C433.399 407.976 430.924 407.588 430.189 407.122C429.454 406.656 426.467 401.633 423.551 395.959L418.251 385.644L417.535 400.072C417.142 408.007 416.979 417.539 417.173 421.254L417.525 428.008L414.481 428.576C412.807 428.889 409.657 429 407.481 428.823L403.525 428.5ZM174.221 378.612C174.054 375.374 174.152 372.111 174.44 371.362C174.824 370.36 177.217 370 183.494 370H192.025V377.539V385.078L183.275 384.789L174.525 384.5L174.221 378.612ZM90.54 385.95C91.906 380.203 93.258 374.487 93.544 373.25C93.939 371.536 94.773 371 97.044 371C98.684 371 100.027 371.112 100.029 371.25C100.031 371.388 101.129 377.099 102.47 383.941C103.81 390.784 104.682 396.746 104.407 397.191C103.766 398.228 90.923 398.222 89.29 397.185C88.335 396.578 88.618 394.03 90.54 385.95ZM335.527 396.969C334.305 395.696 335.412 392.188 337.708 382.25C340.091 371.93 340.496 371 342.607 371C343.872 371 345.163 371.414 345.476 371.92C346.74 373.966 350.89 396.535 350.139 397.286C349.695 397.73 346 397.96 341.928 397.797C338.387 397.655 336.384 397.861 335.527 396.969ZM175.025 415V407.5V400H184.525H194.025V407.5V415H184.525H175.025Z" fill="#035F88"/>
<path fill-rule="evenodd" clip-rule="evenodd" d="M217.477 0.731995L186.43 1.028L179.977 13.12C176.429 19.77 172.579 25.847 171.423 26.624C169.689 27.789 162.991 27.99 133.258 27.768C113.423 27.621 96.931 27.763 96.608 28.085C95.513 29.177 95.943 168.418 97.08 180.694C100.128 213.618 113.956 243.196 136.959 266C147.935 276.881 153.941 281.386 167.525 288.929C190.64 301.764 208.184 306.237 235.525 306.266C249.265 306.28 254.538 305.86 263.025 304.077C290.869 298.226 313.656 286.154 333.876 266.54C355.112 245.942 369.33 217.823 373.939 187.308C374.648 182.614 375.025 153.709 375.025 104.058V28H339.09C319.326 28 302.095 27.597 300.799 27.104C299.184 26.49 296.252 22.241 291.483 13.604L284.525 1L268.525 0.987C259.725 0.979 251.625 0.852002 250.525 0.705002C249.425 0.557002 234.554 0.569995 217.477 0.731995ZM188.785 40.25C197.012 25.809 199.45 22.122 201.025 21.743C204.052 21.014 217.923 21.025 218.375 21.757C218.996 22.762 219.439 43.179 219.21 60.205L219.025 73.909L215.275 74.517C204.255 76.302 187.419 84.365 176.691 92.995C163.924 103.266 155.111 114.364 149.072 127.776C142.178 143.087 140.714 150.145 140.728 168C140.74 181.904 141.018 184.427 143.43 192.5C150.045 214.643 161.005 230.666 178.414 243.648C195.653 256.502 213.044 262 236.462 262C247.206 262 251.575 261.54 259.147 259.612C275.995 255.32 289.956 247.432 302.443 235.148C322.438 215.478 331.942 191.699 330.68 164.5C329.292 134.587 317.068 110.734 293.529 92.003C285.976 85.993 270.841 78.518 260.293 75.588L252.525 73.431L252.258 47.836L251.992 22.242L254.258 21.635C255.505 21.301 259.718 21.021 263.62 21.014C272.008 20.998 271.65 20.694 278.914 34C281.766 39.225 284.73 44.625 285.499 46L286.898 48.5L320.524 48.763L354.149 49.027L353.792 117.763L353.435 186.5L350.818 196.131C349.378 201.428 347.036 207.949 345.613 210.623C344.19 213.297 343.025 216.174 343.025 217.016C343.025 219.516 334.917 232.992 328.889 240.51C311.017 262.801 287.861 277.142 258.805 283.914C250.729 285.796 231.15 286.386 220.443 285.07C204.664 283.131 185.235 275.953 170.843 266.746C154.553 256.326 137.384 236.989 129.338 220C123.862 208.438 122.448 204.268 119.501 191C117.194 180.615 117.168 179.783 117.077 114.75L116.984 49H150.392H183.8L188.785 40.25Z" fill="#3CB4F1"/>
<path fill-rule="evenodd" clip-rule="evenodd" d="M211.832 76.027C205.87 77.032 191.057 83.544 183.848 88.329C154.992 107.483 137.993 142.94 142.058 175.5C145.301 201.475 153.568 219.059 170.031 235C179.909 244.565 193.662 253.283 204.525 256.866C222.044 262.644 242.805 263.501 259.309 259.128C283.024 252.842 304.158 236.99 315.479 216.995C325.332 199.594 328.988 186.489 329.01 168.5C329.031 151.501 326.609 139.941 319.93 125.154C309.183 101.361 280.845 79.287 256.128 75.456L251.731 74.775L252.297 85.637C253.135 101.721 256.574 109.388 266.57 117.461C278.228 126.875 284.839 137.561 287.713 151.637C290.706 166.296 286.271 183.541 276.415 195.569C271.489 201.58 259.416 209.49 251.376 211.973C239.122 215.758 223.42 214.289 211.04 208.198C203.209 204.347 192.073 192.981 188.222 184.912C184.183 176.45 183.077 171.323 183.061 161C183.037 144.298 187.469 134.46 201.08 121C212.482 109.726 215.211 106.14 217.39 99.572C219.437 93.403 219.727 74.934 217.775 75.118C217.088 75.182 214.413 75.591 211.832 76.027ZM280.102 220.411C275.908 216.882 275.848 212.023 279.948 207.923C284.513 203.358 289.264 204.086 293.321 209.973C295.802 213.573 295.418 216.761 292.102 220.077C288.375 223.803 284.269 223.918 280.102 220.411Z" fill="#035F88"/>
<path fill-rule="evenodd" clip-rule="evenodd" d="M312.025 69.5V78H326.458C327.498 78 328.469 78.0029 329.374 78.0056C336.526 78.0269 339.619 78.0361 340.934 76.5118C341.936 75.3504 341.906 73.2988 341.853 69.6842C341.844 69.0837 341.834 68.4399 341.829 67.75L341.775 61H326.9H312.025V69.5ZM1.263 392.25L1.52499 428.5H21.525H41.525L41.821 421.75L42.116 415H29.571H17.025V385.5V356H9.013H1L1.263 392.25ZM86.905 357.007C86.014 357.528 84.543 359.087 83.635 360.472C82.307 362.5 66.025 424.241 66.025 427.252C66.025 427.711 69.28 427.955 73.258 427.794L80.491 427.5L81.874 421C82.634 417.425 83.415 413.938 83.609 413.25C83.867 412.336 87.289 412 96.319 412H108.677L110.101 419.75L111.525 427.5L118.84 428.352C122.863 428.821 126.402 428.956 126.705 428.653C127.308 428.05 126.354 422.557 122.595 405C121.242 398.675 118.494 385.625 116.489 376C114.485 366.375 112.381 357.938 111.813 357.25C110.568 355.743 89.421 355.537 86.905 357.007ZM172.775 356.713L158.025 357.053V392.527V428L172.275 428.225C203.835 428.722 207.815 427.119 210.243 412.933C211.72 404.297 210.673 399.347 206.542 395.452L203.23 392.328L206.127 388.013C208.571 384.375 209.025 382.699 209.025 377.317C209.025 367.513 205.761 361.17 199.334 358.484C194.924 356.642 190.013 356.314 172.775 356.713ZM259.525 356.991C252.836 358.025 249.7 359.605 246.88 363.363C244.577 366.431 244.518 367.041 244.226 391.195C243.945 414.486 244.045 416.119 245.989 419.93C247.123 422.152 249.057 424.617 250.288 425.407C254.013 427.799 263.914 429.134 275.525 428.808L286.525 428.5L286.821 421.75L287.116 415H274.63C267.762 415 261.946 414.663 261.706 414.25C261.465 413.837 261.101 403.825 260.897 392L260.525 370.5L273.525 370L286.525 369.5V363V356.5L275.525 356.359C269.475 356.282 262.275 356.566 259.525 356.991ZM332.905 357.007C332.014 357.528 330.552 359.074 329.655 360.442C328.25 362.586 319.475 395.738 314.552 417.5C313.681 421.35 312.726 425.288 312.429 426.25C311.949 427.808 312.707 428 319.349 428C320.062 428 320.708 428.008 321.294 428.014C323.825 428.044 325.233 428.061 326.147 427.397C327.293 426.564 327.663 424.663 328.495 420.376C328.649 419.585 328.819 418.712 329.012 417.75L330.167 412H342.435H354.704L356.163 419.75L357.622 427.5L365.645 427.788L373.668 428.075L368.499 403.288C365.656 389.654 362.257 373.438 360.944 367.25L358.558 356L346.542 356.03C339.932 356.047 333.796 356.487 332.905 357.007ZM403.017 400.124C402.987 421.297 402.978 427.443 405.53 428.811C406.574 429.371 408.046 429.131 410.12 428.794C410.722 428.696 411.375 428.589 412.083 428.492L417.025 427.812V406.406C417.025 394.633 417.362 385.002 417.775 385.005C418.188 385.007 420.936 389.762 423.884 395.571C429.433 406.508 431.018 408.026 436.84 407.978C439.247 407.959 440.154 406.747 445.597 396.288C448.936 389.87 452.198 384.442 452.847 384.226C453.728 383.932 454.025 389.556 454.025 406.548V429.262L457.775 428.642C459.838 428.301 463.213 428.017 465.275 428.011L469.025 428V395.082C469.025 376.977 468.745 361.435 468.404 360.545C467.509 358.213 462.701 356 458.528 356C455.642 356 454.631 356.543 453.406 358.75C452.566 360.263 448.482 367.913 444.329 375.75C440.177 383.587 436.451 390 436.051 390C435.651 390 431.843 383.362 427.59 375.25C418.144 357.232 416.952 356 408.969 356H403.025V391.933C403.025 394.886 403.021 397.611 403.017 400.124ZM93.552 371.186C92.649 373.766 88.025 394.885 88.025 396.428C88.025 397.734 89.463 398 96.525 398C97.19 398 97.8091 398.005 98.3845 398.01C101.522 398.037 103.358 398.052 104.244 397.143C105.495 395.858 104.849 392.727 103.292 385.174C103.09 384.193 102.872 383.136 102.641 382L100.304 370.5L97.158 370.186C95.221 369.993 93.835 370.377 93.552 371.186ZM174.232 377.712L174.525 385.5H183.525H192.525V378V370.5L183.232 370.212L173.94 369.924L174.232 377.712ZM339.126 373.691C337.85 378.51 334.025 396.142 334.025 397.203C334.025 397.641 337.85 398 342.525 398H351.025L350.923 394.75C350.867 392.962 349.854 386.775 348.673 381L346.525 370.5L343.33 370.191C340.383 369.906 340.055 370.179 339.126 373.691ZM175.275 398.662C174.423 399.006 174.025 401.686 174.025 407.083V415H184.025H194.025V407.117C194.025 399.787 193.867 399.191 191.775 398.63C189.109 397.916 177.067 397.939 175.275 398.662Z" fill="#025E85"/>
</svg>
